# xmcd
#
# Track frame offsets:
#	183
#	12238
#	26190
#	39998
#	52258
#	68283
#	82973
#	99080
#	112938
#	131443
#	143000
#	153765
#	170088
#	185840
#	199718
#	214495
#	227985
#	247435
#
# Disc length: 3539
#
# Revision: 3
# Processed by: cddbd v1.5.1PL0 Copyright (c) Steve Scherf et al.
# Submitted via: CDex 1.40Beta3
# Normalized: r1:DSETVAR1,TDELIM( - ),TSWAP
#
DISCID=f90dd112
DTITLE=Various Artist - I Will Always Love You (18 Romantic Country Songs)
DYEAR=1991
DGENRE=Country
TTITLE0=Crystal Gayle - Don't Make My Bown Eyes Blue
TTITLE1=Dolly Parton - I Will Always Love You
TTITLE2=Willy Nelson - Funny How Time Slips Away
TTITLE3=Tatsy Cline - Cracy
TTITLE4=Billie Jo Spears - Blanket On The Ground
TTITLE5=Glen Cambell - Rhinestone Cowboy
TTITLE6=Alabama - Feels So Right
TTITLE7=Don McLean - Your Cheating Heard
TTITLE8=Don Williams - I Believe In You
TTITLE9=Freddy Fender - Before The Next Teardrops Fall
TTITLE10=Jim Reeves - Hell Have To Go
TTITLE11=Anne Murray - You Needed Me
TTITLE12=Judds - Why Not Me
TTITLE13=Barbara Mandrell - I Don't Wanna Be Right
TTITLE14=Oak Ridge Boys - Ozark Mountain Jubil;ee
TTITLE15=Loretta Lynn - Coal Miner's Daughter
TTITLE16=Kenny Rodgers - Coward Og The Country
TTITLE17=Bellemy Brothers - We Don't Wanna Go For It
EXTD=YEAR: 1991 ID3G:   2
EXTT0=
EXTT1=
EXTT2=
EXTT3=
EXTT4=
EXTT5=
EXTT6=
EXTT7=
EXTT8=
EXTT9=
EXTT10=
EXTT11=
EXTT12=
EXTT13=
EXTT14=
EXTT15=
EXTT16=
EXTT17=
PLAYORDER=
